<svg width="840" height="282" viewBox="0 0 840 282" fill="none" xmlns="http://www.w3.org/2000/svg">
<path fill-rule="evenodd" clip-rule="evenodd" d="M561 141C561 218.872 497.872 282 420 282C342.128 282 279 218.872 279 141C279 63.1279 342.128 0 420 0C497.872 0 561 63.1279 561 141ZM508.91 205.977V103.508L420 51.4849L331.061 103.367V205.977H395.254V147.425C395.254 133.753 406.337 122.679 420 122.679C426.831 122.679 433.02 125.448 437.499 129.926C441.977 134.405 444.746 140.584 444.746 147.425V205.977H508.91Z" fill="#DBDBDB"/>
<path d="M181.302 282V217.928H221V177.933H181.302V0H133.828L0 173.852V217.928H133.828V282H181.302ZM133.828 58.767V177.933H42.1537L133.828 58.767Z" fill="#DBDBDB"/>
<path d="M800.302 282V217.928H840V177.933H800.302V0H752.828L619 173.852V217.928H752.828V282H800.302ZM752.828 58.767V177.933H661.154L752.828 58.767Z" fill="#DBDBDB"/>
<mask id="mask0_1569_36645" style="mask-type:alpha" maskUnits="userSpaceOnUse" x="395" y="115" width="31" height="91">
<path d="M395 130.8C395 125.893 397.324 121.276 401.264 118.352C411.492 110.764 426 118.065 426 130.8V183L395 206V130.8Z" fill="#F4B655"/>
</mask>
<g mask="url(#mask0_1569_36645)">
<path d="M395 148C395 134.193 406.193 123 420 123C433.807 123 445 134.193 445 148V206H395V148Z" fill="#F4B655"/>
</g>
</svg>
