<svg width="162" height="54" viewBox="0 0 162 54" fill="none" xmlns="http://www.w3.org/2000/svg">
<g clip-path="url(#clip0_465_1264)">
<path d="M149.099 3.81709e-05H12.908C12.4115 3.81709e-05 11.921 3.8171e-05 11.4259 0.00273817C11.0115 0.00543817 10.6003 0.0132817 10.1819 0.0198832C9.2728 0.0305506 8.36589 0.110301 7.46899 0.258442C6.57336 0.409807 5.70578 0.695174 4.8956 1.10489C4.08641 1.51807 3.34704 2.05496 2.70429 2.69608C2.05817 3.3354 1.51958 4.07436 1.10923 4.88455C0.697744 5.69314 0.412419 6.55961 0.263109 7.45404C0.112379 8.34734 0.0312704 9.25094 0.0205099 10.1567C0.00794675 10.5706 0.00662003 10.9859 0 11.3999V42.6041C0.00662003 43.0233 0.00794675 43.4294 0.0205099 43.8487C0.0312737 44.7545 0.112383 45.658 0.263109 46.5513C0.412007 47.4462 0.697348 48.3132 1.10923 49.1221C1.51939 49.9297 2.05806 50.6656 2.70429 51.3014C3.3446 51.9454 4.08445 52.4826 4.8956 52.8926C5.70577 53.3034 6.57326 53.5905 7.46899 53.7442C8.36604 53.8912 9.27286 53.971 10.1819 53.9829C10.6003 53.9921 11.0115 53.9973 11.4259 53.9973C11.921 54 12.4115 54 12.908 54H149.099C149.586 54 150.08 54 150.567 53.9973C150.979 53.9973 151.402 53.9921 151.815 53.9829C152.722 53.9716 153.627 53.8918 154.522 53.7442C155.421 53.5894 156.292 53.3024 157.106 52.8926C157.916 52.4824 158.655 51.9451 159.295 51.3014C159.94 50.6631 160.48 49.9277 160.895 49.1221C161.304 48.3126 161.586 47.4457 161.733 46.5513C161.884 45.6579 161.968 44.7545 161.984 43.8487C161.989 43.4294 161.989 43.0233 161.989 42.6041C162 42.1137 162 41.6259 162 41.1275V12.8738C162 12.3794 162 11.889 161.989 11.3999C161.989 10.9859 161.989 10.5706 161.984 10.1567C161.968 9.25081 161.884 8.34741 161.733 7.45398C161.586 6.56007 161.303 5.69367 160.895 4.8845C160.059 3.26055 158.734 1.93867 157.106 1.10477C156.292 0.696054 155.421 0.410763 154.522 0.25832C153.627 0.109527 152.722 0.0297487 151.815 0.0196942C151.402 0.0131062 150.979 0.00519517 150.567 0.00256267C150.08 -0.000137329 149.586 -0.000137329 149.099 -0.000137329V3.81709e-05Z" fill="#A6A6A6"/>
<path d="M11.4323 52.8187C11.0198 52.8187 10.6173 52.8135 10.2081 52.8043C9.36031 52.7933 8.51452 52.7197 7.67765 52.5841C6.89732 52.4501 6.14138 52.2008 5.43477 51.8445C4.73465 51.4911 4.09608 51.0277 3.54353 50.472C2.98298 49.923 2.5163 49.2861 2.16197 48.5868C1.80375 47.8829 1.55583 47.1284 1.42687 46.3495C1.28759 45.5127 1.21224 44.6665 1.20146 43.8183C1.19288 43.5336 1.18164 42.5856 1.18164 42.5856V11.3999C1.18164 11.3999 1.19361 10.4664 1.20153 10.1922C1.21185 9.34534 1.28677 8.50048 1.42562 7.66493C1.55482 6.88398 1.80293 6.1273 2.16135 5.42109C2.51437 4.72222 2.97846 4.08491 3.53564 3.53386C4.09218 2.97758 4.7328 2.51181 5.43411 2.15353C6.13909 1.79832 6.8936 1.55078 7.67236 1.41921C8.51198 1.28227 9.3607 1.20824 10.2114 1.19773L11.433 1.18124H150.56L151.796 1.19839C152.639 1.20838 153.48 1.28175 154.312 1.41789C155.099 1.55111 155.861 1.80037 156.574 2.15748C157.979 2.87953 159.122 4.02186 159.843 5.42439C160.196 6.12572 160.44 6.87623 160.568 7.65043C160.709 8.49283 160.787 9.34434 160.803 10.1982C160.807 10.5805 160.807 10.9912 160.807 11.3999C160.818 11.9061 160.818 12.388 160.818 12.8738V41.1275C160.818 41.6179 160.818 42.0965 160.807 42.579C160.807 43.018 160.807 43.4202 160.802 43.8341C160.786 44.6727 160.709 45.509 160.571 46.3363C160.444 47.1207 160.198 47.8811 159.84 48.5908C159.483 49.2826 159.019 49.9139 158.465 50.4615C157.912 51.0201 157.272 51.4862 156.57 51.8419C155.859 52.201 155.098 52.4512 154.312 52.5841C153.475 52.7204 152.629 52.794 151.782 52.8043C151.385 52.8135 150.97 52.8187 150.567 52.8187L149.099 52.8214L11.4323 52.8187Z" fill="black"/>
<path d="M33.5324 27.4055C33.547 26.2787 33.8471 25.1739 34.4049 24.1939C34.9627 23.2139 35.7601 22.3904 36.7227 21.8003C36.1112 20.9293 35.3044 20.2125 34.3665 19.7069C33.4285 19.2012 32.3853 18.9206 31.3195 18.8874C29.0462 18.6494 26.8423 20.2439 25.6839 20.2439C24.503 20.2439 22.7194 18.911 20.7987 18.9504C19.5564 18.9904 18.3456 19.3507 17.2844 19.9961C16.2232 20.6415 15.3477 21.5499 14.7433 22.633C12.1251 27.1534 14.078 33.7968 16.5861 37.4507C17.8409 39.24 19.3074 41.2386 21.2264 41.1677C23.1042 41.09 23.8055 39.9737 26.0721 39.9737C28.3177 39.9737 28.9757 41.1677 30.9336 41.1226C32.9485 41.09 34.2181 39.3255 35.4289 37.5193C36.3305 36.2444 37.0242 34.8354 37.4845 33.3444C36.3139 32.8507 35.3149 32.0242 34.6121 30.9681C33.9093 29.912 33.5338 28.673 33.5324 27.4055Z" fill="white"/>
<path d="M29.8346 16.4852C30.9332 15.17 31.4745 13.4795 31.3434 11.7728C29.665 11.9486 28.1145 12.7486 27.001 14.0133C26.4566 14.6311 26.0397 15.3499 25.774 16.1286C25.5083 16.9072 25.3991 17.7304 25.4527 18.5512C26.2922 18.5598 27.1228 18.3783 27.8818 18.0205C28.6408 17.6626 29.3085 17.1377 29.8346 16.4852Z" fill="white"/>
<path d="M57.2685 36.6386H50.8605L49.3216 41.1698H46.6074L52.677 24.4055H55.4969L61.5665 41.1698H58.806L57.2685 36.6386ZM51.5242 34.5476H56.6036L54.0996 27.1938H54.0295L51.5242 34.5476Z" fill="white"/>
<path d="M74.6745 35.0588C74.6745 38.857 72.6359 41.2973 69.5595 41.2973C68.7801 41.338 68.0051 41.1589 67.3231 40.7808C66.641 40.4026 66.0796 39.8405 65.703 39.1589H65.6448V45.2128H63.1289V28.9469H65.5642V30.9798H65.6105C66.0043 30.3015 66.5753 29.7423 67.2625 29.3618C67.9497 28.9814 68.7275 28.7938 69.5132 28.819C72.6239 28.819 74.6745 31.2712 74.6745 35.0588ZM72.0885 35.0588C72.0885 32.5843 70.8061 30.9574 68.8495 30.9574C66.9272 30.9574 65.6342 32.6185 65.6342 35.0588C65.6342 37.5215 66.9272 39.1708 68.8495 39.1708C70.8062 39.1708 72.0885 37.5558 72.0885 35.0588Z" fill="white"/>
<path d="M88.1647 35.0588C88.1647 38.857 86.1261 41.2973 83.0497 41.2973C82.2704 41.3379 81.4953 41.1589 80.8133 40.7807C80.1313 40.4026 79.5698 39.8405 79.1932 39.1589H79.135V45.2128H76.6191V28.9469H79.0544V30.9798H79.1006C79.4945 30.3015 80.0655 29.7423 80.7527 29.3618C81.4399 28.9813 82.2177 28.7938 83.0034 28.819C86.1142 28.819 88.1647 31.2712 88.1647 35.0588ZM85.5788 35.0588C85.5788 32.5843 84.2964 30.9574 82.3397 30.9574C80.4175 30.9574 79.1245 32.6185 79.1245 35.0588C79.1245 37.5215 80.4175 39.1708 82.3397 39.1708C84.2964 39.1708 85.5788 37.5558 85.5788 35.0588H85.5788Z" fill="white"/>
<path d="M97.0813 36.4988C97.2677 38.1613 98.8872 39.2528 101.1 39.2528C103.221 39.2528 104.747 38.1612 104.747 36.6623C104.747 35.361 103.826 34.5819 101.648 34.0479L99.4689 33.5246C96.3819 32.781 94.9488 31.3413 94.9488 29.0052C94.9488 26.1127 97.4766 24.126 101.066 24.126C104.618 24.126 107.054 26.1127 107.136 29.0052H104.596C104.444 27.3322 103.057 26.3224 101.03 26.3224C99.0035 26.3224 97.6167 27.3441 97.6167 28.8312C97.6167 30.0164 98.5025 30.7138 100.669 31.2477L102.522 31.7012C105.971 32.5146 107.404 33.8963 107.404 36.3484C107.404 39.4848 104.899 41.4492 100.914 41.4492C97.1857 41.4492 94.6685 39.5309 94.5059 36.4987L97.0813 36.4988Z" fill="white"/>
<path d="M112.833 26.0558V28.9483H115.164V30.935H112.833V37.6732C112.833 38.7199 113.3 39.2077 114.325 39.2077C114.601 39.2029 114.878 39.1836 115.152 39.1497V41.1246C114.692 41.2104 114.223 41.2493 113.755 41.2406C111.273 41.2406 110.306 40.3112 110.306 37.9408V30.935H108.523V28.9483H110.306V26.0558H112.833Z" fill="white"/>
<path d="M116.514 35.0602C116.514 31.2145 118.785 28.798 122.327 28.798C125.88 28.798 128.141 31.2145 128.141 35.0602C128.141 38.9164 125.892 41.3224 122.327 41.3224C118.762 41.3224 116.514 38.9164 116.514 35.0602ZM125.578 35.0602C125.578 32.4222 124.365 30.8652 122.327 30.8652C120.288 30.8652 119.077 32.434 119.077 35.0602C119.077 37.7088 120.288 39.2539 122.327 39.2539C124.365 39.2539 125.578 37.7088 125.578 35.0602H125.578Z" fill="white"/>
<path d="M130.217 28.9468H132.616V31.0272H132.675C132.837 30.3774 133.219 29.8032 133.756 29.4011C134.292 28.999 134.952 28.7934 135.623 28.8189C135.913 28.8179 136.202 28.8493 136.485 28.9125V31.2592C136.119 31.1477 135.737 31.0965 135.354 31.1076C134.989 31.0928 134.624 31.1571 134.286 31.296C133.948 31.4349 133.644 31.6451 133.395 31.9123C133.146 32.1794 132.958 32.4972 132.843 32.8437C132.729 33.1902 132.691 33.5572 132.733 33.9197V41.1693H130.217L130.217 28.9468Z" fill="white"/>
<path d="M148.084 37.5809C147.745 39.7997 145.578 41.3224 142.806 41.3224C139.24 41.3224 137.027 38.9401 137.027 35.1182C137.027 31.2844 139.252 28.798 142.7 28.798C146.091 28.798 148.224 31.1209 148.224 34.8268V35.6864H139.567V35.838C139.527 36.2878 139.584 36.741 139.733 37.1674C139.882 37.5937 140.12 37.9836 140.432 38.311C140.744 38.6385 141.122 38.896 141.541 39.0665C141.961 39.237 142.412 39.3166 142.864 39.3C143.459 39.3556 144.055 39.2183 144.565 38.9085C145.075 38.5988 145.471 38.1331 145.695 37.5809L148.084 37.5809ZM139.579 33.933H145.707C145.729 33.5285 145.668 33.1238 145.526 32.7442C145.384 32.3645 145.165 32.0182 144.883 31.7269C144.601 31.4356 144.261 31.2057 143.886 31.0515C143.51 30.8973 143.106 30.8222 142.7 30.8309C142.291 30.8284 141.884 30.9069 141.505 31.0618C141.126 31.2167 140.782 31.445 140.491 31.7334C140.201 32.0218 139.971 32.3647 139.815 32.7422C139.658 33.1197 139.578 33.5244 139.579 33.933V33.933Z" fill="white"/>
<path d="M51.2088 11.7873C51.7363 11.7495 52.2655 11.829 52.7585 12.0199C53.2514 12.2108 53.6957 12.5085 54.0593 12.8914C54.4229 13.2743 54.6968 13.7329 54.8611 14.2341C55.0255 14.7353 55.0762 15.2667 55.0097 15.7898C55.0097 18.3632 53.615 19.8425 51.2088 19.8425H48.291V11.7873H51.2088ZM49.5456 18.7033H51.0687C51.4456 18.7258 51.8227 18.6642 52.1727 18.5229C52.5228 18.3817 52.8368 18.1644 53.092 17.8869C53.3471 17.6094 53.5371 17.2786 53.6479 16.9187C53.7587 16.5588 53.7876 16.1787 53.7326 15.8062C53.7837 15.4352 53.7518 15.0575 53.6392 14.7002C53.5267 14.3429 53.3363 14.0148 53.0817 13.7395C52.8271 13.4642 52.5146 13.2485 52.1666 13.1078C51.8186 12.9671 51.4436 12.9048 51.0687 12.9256H49.5456V18.7033Z" fill="white"/>
<path d="M56.4277 16.8014C56.3893 16.4019 56.4352 15.9988 56.5622 15.618C56.6892 15.2372 56.8947 14.8871 57.1654 14.5902C57.4361 14.2932 57.766 14.0559 58.134 13.8935C58.502 13.7312 58.9 13.6473 59.3025 13.6473C59.7049 13.6473 60.1029 13.7312 60.471 13.8935C60.839 14.0559 61.1689 14.2932 61.4396 14.5902C61.7103 14.8871 61.9157 15.2372 62.0428 15.618C62.1698 15.9988 62.2156 16.4019 62.1773 16.8014C62.2164 17.2013 62.1711 17.6049 62.0444 17.9863C61.9177 18.3677 61.7123 18.7185 61.4416 19.016C61.1708 19.3136 60.8407 19.5514 60.4723 19.7141C60.1039 19.8768 59.7054 19.9609 59.3025 19.9609C58.8996 19.9609 58.5011 19.8768 58.1327 19.7141C57.7643 19.5514 57.4341 19.3136 57.1634 19.016C56.8926 18.7185 56.6873 18.3677 56.5606 17.9863C56.4339 17.6049 56.3886 17.2013 56.4277 16.8014ZM60.9398 16.8014C60.9398 15.4837 60.3462 14.7131 59.3045 14.7131C58.2587 14.7131 57.6704 15.4837 57.6704 16.8014C57.6704 18.1297 58.2588 18.8943 59.3045 18.8943C60.3463 18.8943 60.9399 18.1244 60.9399 16.8014H60.9398Z" fill="white"/>
<path d="M69.8192 19.8425H68.5711L67.3112 15.3653H67.216L65.9614 19.8425H64.7253L63.0449 13.7635H64.2652L65.3572 18.4021H65.4471L66.7004 13.7635H67.8546L69.1079 18.4021H69.2031L70.2898 13.7635H71.4929L69.8192 19.8425Z" fill="white"/>
<path d="M72.9063 13.7631H74.0644V14.7287H74.1543C74.3068 14.3819 74.564 14.0912 74.8901 13.897C75.2162 13.7029 75.5949 13.615 75.9734 13.6457C76.27 13.6235 76.5679 13.6681 76.8449 13.7762C77.1218 13.8843 77.3709 14.0532 77.5735 14.2704C77.7762 14.4875 77.9272 14.7473 78.0155 15.0306C78.1037 15.3138 78.127 15.6133 78.0834 15.9067V19.8419H76.8804V16.208C76.8804 15.2311 76.4547 14.7452 75.5649 14.7452C75.3635 14.7359 75.1625 14.7701 74.9756 14.8454C74.7887 14.9208 74.6203 15.0356 74.4821 15.1819C74.3438 15.3282 74.2389 15.5026 74.1746 15.6931C74.1103 15.8837 74.088 16.0858 74.1093 16.2857V19.842H72.9062L72.9063 13.7631Z" fill="white"/>
<path d="M80 11.3905H81.2031V19.8425H80V11.3905Z" fill="white"/>
<path d="M82.8768 16.7994C82.8386 16.3998 82.8844 15.9968 83.0115 15.616C83.1385 15.2351 83.344 14.885 83.6147 14.588C83.8854 14.2911 84.2154 14.0538 84.5835 13.8914C84.9515 13.729 85.3495 13.6451 85.752 13.6451C86.1545 13.6451 86.5525 13.729 86.9205 13.8914C87.2886 14.0538 87.6186 14.2911 87.8893 14.588C88.16 14.885 88.3654 15.2351 88.4925 15.616C88.6196 15.9968 88.6654 16.3998 88.6271 16.7994C88.6661 17.1993 88.6208 17.6029 88.4941 17.9843C88.3673 18.3657 88.162 18.7165 87.8912 19.014C87.6204 19.3116 87.2902 19.5493 86.9218 19.7121C86.5534 19.8748 86.1549 19.9588 85.752 19.9588C85.3491 19.9588 84.9506 19.8748 84.5822 19.7121C84.2138 19.5493 83.8836 19.3116 83.6128 19.014C83.342 18.7165 83.1367 18.3657 83.0099 17.9843C82.8832 17.6029 82.8378 17.1993 82.8768 16.7994ZM87.389 16.7994C87.389 15.4817 86.7954 14.7111 85.7536 14.7111C84.7079 14.7111 84.1196 15.4817 84.1196 16.7994C84.1196 18.1276 84.7079 18.8923 85.7536 18.8923C86.7954 18.8923 87.389 18.1223 87.389 16.7994H87.389Z" fill="white"/>
<path d="M89.8926 18.1244C89.8926 17.0302 90.7096 16.3993 92.1599 16.3097L93.8112 16.2148V15.6901C93.8112 15.048 93.3855 14.6855 92.5631 14.6855C91.8915 14.6855 91.4262 14.9313 91.2926 15.3611H90.1279C90.2509 14.317 91.2358 13.6473 92.6187 13.6473C94.147 13.6473 95.009 14.406 95.009 15.6901V19.8435H93.8508V18.9893H93.7556C93.5624 19.2957 93.2911 19.5455 92.9694 19.7132C92.6478 19.8809 92.2872 19.9604 91.9246 19.9437C91.6687 19.9703 91.41 19.943 91.1653 19.8638C90.9206 19.7845 90.6953 19.655 90.5038 19.4836C90.3124 19.3122 90.1591 19.1027 90.0538 18.8686C89.9485 18.6345 89.8936 18.381 89.8926 18.1244ZM93.8112 17.605V17.0967L92.3225 17.1917C91.483 17.2477 91.1023 17.5325 91.1023 18.0684C91.1023 18.6155 91.5782 18.9339 92.2327 18.9339C92.4244 18.9532 92.6181 18.9339 92.8023 18.8771C92.9864 18.8203 93.1572 18.7271 93.3044 18.6031C93.4517 18.4791 93.5725 18.3269 93.6595 18.1554C93.7466 17.9839 93.7982 17.7967 93.8112 17.605Z" fill="white"/>
<path d="M96.5898 16.8004C96.5898 14.8795 97.5801 13.6627 99.1203 13.6627C99.5013 13.6452 99.8794 13.7362 100.21 13.925C100.541 14.1139 100.812 14.3928 100.99 14.7292H101.08V11.3905H102.283V19.8425H101.13V18.8821H101.035C100.843 19.2162 100.563 19.4916 100.226 19.6786C99.8883 19.8655 99.506 19.9569 99.1203 19.9427C97.5695 19.9427 96.5898 18.7259 96.5898 16.8004ZM97.8326 16.8004C97.8326 18.0898 98.4421 18.8656 99.4614 18.8656C100.475 18.8656 101.102 18.0786 101.102 16.8057C101.102 15.5387 100.469 14.7405 99.4614 14.7405C98.4487 14.7405 97.8326 15.5216 97.8326 16.8004H97.8326Z" fill="white"/>
<path d="M107.262 16.8014C107.223 16.4019 107.269 15.9988 107.396 15.618C107.523 15.2372 107.729 14.8871 107.999 14.5902C108.27 14.2932 108.6 14.0559 108.968 13.8935C109.336 13.7312 109.734 13.6473 110.136 13.6473C110.539 13.6473 110.937 13.7312 111.305 13.8935C111.673 14.0559 112.003 14.2932 112.274 14.5902C112.544 14.8871 112.75 15.2372 112.877 15.618C113.004 15.9988 113.05 16.4019 113.011 16.8014C113.05 17.2013 113.005 17.6049 112.878 17.9863C112.752 18.3677 112.546 18.7185 112.276 19.016C112.005 19.3136 111.675 19.5514 111.306 19.7141C110.938 19.8768 110.539 19.9609 110.136 19.9609C109.734 19.9609 109.335 19.8768 108.967 19.7141C108.598 19.5514 108.268 19.3136 107.997 19.016C107.727 18.7185 107.521 18.3677 107.395 17.9863C107.268 17.6049 107.223 17.2013 107.262 16.8014ZM111.774 16.8014C111.774 15.4837 111.18 14.7131 110.138 14.7131C109.093 14.7131 108.504 15.4837 108.504 16.8014C108.504 18.1297 109.093 18.8943 110.138 18.8943C111.18 18.8943 111.774 18.1244 111.774 16.8014Z" fill="white"/>
<path d="M114.625 13.7631H115.783V14.7287H115.873C116.026 14.3819 116.283 14.0912 116.609 13.897C116.935 13.7029 117.314 13.615 117.692 13.6457C117.989 13.6235 118.287 13.6681 118.564 13.7762C118.841 13.8843 119.09 14.0532 119.292 14.2704C119.495 14.4875 119.646 14.7473 119.734 15.0306C119.822 15.3138 119.846 15.6133 119.802 15.9067V19.8419H118.599V16.208C118.599 15.2311 118.173 14.7452 117.284 14.7452C117.082 14.7359 116.881 14.7701 116.694 14.8454C116.507 14.9208 116.339 15.0356 116.201 15.1819C116.063 15.3282 115.958 15.5026 115.893 15.6931C115.829 15.8837 115.807 16.0858 115.828 16.2857V19.842H114.625V13.7631Z" fill="white"/>
<path d="M126.6 12.2501V13.7912H127.921V14.8017H126.6V17.9276C126.6 18.5643 126.863 18.8432 127.462 18.8432C127.615 18.8427 127.768 18.8334 127.921 18.8155V19.8148C127.705 19.8533 127.486 19.8738 127.266 19.8761C125.928 19.8761 125.395 19.4068 125.395 18.2347V14.8017H124.428V13.7912H125.395V12.2501H126.6Z" fill="white"/>
<path d="M129.564 11.3905H130.757V14.7404H130.852C131.012 14.3904 131.276 14.098 131.609 13.9031C131.942 13.7082 132.326 13.6204 132.711 13.6515C133.006 13.6355 133.301 13.6846 133.575 13.7954C133.849 13.9061 134.095 14.0758 134.295 14.2922C134.496 14.5087 134.646 14.7666 134.735 15.0476C134.824 15.3286 134.85 15.6257 134.81 15.9177V19.8425H133.606V16.2137C133.606 15.2427 133.153 14.751 132.302 14.751C132.096 14.7341 131.888 14.7624 131.693 14.834C131.498 14.9057 131.322 15.0188 131.176 15.1656C131.029 15.3124 130.917 15.4893 130.847 15.6839C130.776 15.8785 130.749 16.0861 130.768 16.2921V19.8425H129.565L129.564 11.3905Z" fill="white"/>
<path d="M141.825 18.2002C141.662 18.7557 141.308 19.2363 140.825 19.5578C140.342 19.8793 139.761 20.0213 139.184 19.9588C138.782 19.9694 138.383 19.8927 138.014 19.734C137.645 19.5754 137.315 19.3386 137.047 19.04C136.78 18.7415 136.58 18.3884 136.463 18.0052C136.345 17.6221 136.313 17.218 136.368 16.8212C136.314 16.4231 136.347 16.0182 136.464 15.6338C136.581 15.2495 136.78 14.8948 137.046 14.5937C137.313 14.2925 137.641 14.052 138.009 13.8883C138.377 13.7247 138.776 13.6418 139.179 13.6452C140.875 13.6452 141.898 14.8008 141.898 16.7097V17.1284H137.593V17.1956C137.575 17.4187 137.603 17.6432 137.676 17.8548C137.749 18.0664 137.866 18.2604 138.019 18.4244C138.172 18.5884 138.357 18.7187 138.564 18.807C138.77 18.8952 138.992 18.9396 139.217 18.9371C139.505 18.9715 139.796 18.9199 140.054 18.7886C140.313 18.6574 140.526 18.4525 140.667 18.2001L141.825 18.2002ZM137.593 16.2411H140.672C140.688 16.0371 140.66 15.8321 140.591 15.6395C140.522 15.4468 140.413 15.2706 140.272 15.1223C140.131 14.974 139.96 14.8568 139.77 14.7783C139.581 14.6998 139.377 14.6616 139.172 14.6663C138.964 14.6637 138.757 14.7027 138.565 14.7809C138.372 14.8591 138.197 14.975 138.05 15.1218C137.902 15.2685 137.786 15.4432 137.708 15.6354C137.63 15.8277 137.591 16.0336 137.593 16.2411H137.593Z" fill="white"/>
</g>
<defs>
<clipPath id="clip0_465_1264">
<rect width="162" height="54" fill="white"/>
</clipPath>
</defs>
</svg>
