<svg width="78" height="78" viewBox="0 0 78 78" fill="none" xmlns="http://www.w3.org/2000/svg">
<rect width="78" height="78" fill="#EBB767"/>
<path d="M53 32L42.5 22.795C41.5375 21.9341 40.2914 21.4581 39 21.4581C37.7087 21.4581 36.4626 21.9341 35.5 22.795L25 32C24.4442 32.4971 24.0006 33.107 23.6989 33.7889C23.3971 34.4709 23.2441 35.2093 23.25 35.955V51.25C23.25 52.6424 23.8032 53.9778 24.7877 54.9623C25.7723 55.9469 27.1077 56.5 28.5 56.5H49.5C50.8924 56.5 52.2278 55.9469 53.2124 54.9623C54.1969 53.9778 54.75 52.6424 54.75 51.25V35.9375C54.7535 35.1947 54.5993 34.4597 54.2976 33.781C53.9959 33.1022 53.5537 32.4952 53 32ZM42.5 53H35.5V44.25C35.5 43.7859 35.6844 43.3408 36.0126 43.0126C36.3408 42.6844 36.7859 42.5 37.25 42.5H40.75C41.2142 42.5 41.6593 42.6844 41.9875 43.0126C42.3157 43.3408 42.5 43.7859 42.5 44.25V53ZM51.25 51.25C51.25 51.7141 51.0657 52.1593 50.7375 52.4874C50.4093 52.8156 49.9642 53 49.5 53H46V44.25C46 42.8576 45.4469 41.5223 44.4624 40.5377C43.4778 39.5531 42.1424 39 40.75 39H37.25C35.8577 39 34.5223 39.5531 33.5377 40.5377C32.5532 41.5223 32 42.8576 32 44.25V53H28.5C28.0359 53 27.5908 52.8156 27.2626 52.4874C26.9344 52.1593 26.75 51.7141 26.75 51.25V35.9375C26.7504 35.689 26.8036 35.4435 26.9062 35.2172C27.0088 34.9909 27.1584 34.789 27.345 34.625L37.845 25.4375C38.1644 25.157 38.575 25.0022 39 25.0022C39.4251 25.0022 39.8357 25.157 40.155 25.4375L50.655 34.625C50.8417 34.789 50.9913 34.9909 51.0939 35.2172C51.1965 35.4435 51.2497 35.689 51.25 35.9375V51.25Z" fill="black"/>
</svg>
