<svg width="78" height="78" viewBox="0 0 78 78" fill="none" xmlns="http://www.w3.org/2000/svg">
<rect width="78" height="78" fill="#EBB767"/>
<path d="M43.13 42.9025C41.9602 43.8457 40.5027 44.3601 39 44.3601C37.4973 44.3601 36.0399 43.8457 34.87 42.9025C34.5126 42.6055 34.0519 42.4626 33.5891 42.5052C33.1264 42.5479 32.6996 42.7726 32.4025 43.13C32.1055 43.4874 31.9626 43.9481 32.0052 44.4109C32.0479 44.8736 32.2726 45.3005 32.63 45.5975C34.4173 47.0896 36.6717 47.9069 39 47.9069C41.3283 47.9069 43.5827 47.0896 45.37 45.5975C45.7274 45.3005 45.9521 44.8736 45.9948 44.4109C46.0375 43.9481 45.8946 43.4874 45.5975 43.13C45.4504 42.953 45.2699 42.8068 45.0663 42.6996C44.8627 42.5924 44.64 42.5263 44.4109 42.5052C43.9481 42.4626 43.4874 42.6055 43.13 42.9025ZM33.75 37.25C34.0961 37.25 34.4345 37.1474 34.7223 36.9551C35.01 36.7628 35.2343 36.4895 35.3668 36.1697C35.4993 35.8499 35.5339 35.4981 35.4664 35.1586C35.3989 34.8191 35.2322 34.5073 34.9874 34.2626C34.7427 34.0178 34.4309 33.8512 34.0914 33.7836C33.7519 33.7161 33.4001 33.7508 33.0803 33.8832C32.7605 34.0157 32.4872 34.24 32.2949 34.5278C32.1026 34.8155 32 35.1539 32 35.5C32 35.9641 32.1844 36.4092 32.5126 36.7374C32.8408 37.0656 33.2859 37.25 33.75 37.25ZM44.25 33.75C43.9039 33.75 43.5655 33.8526 43.2778 34.0449C42.99 34.2372 42.7657 34.5105 42.6332 34.8303C42.5008 35.1501 42.4661 35.5019 42.5336 35.8414C42.6012 36.1809 42.7678 36.4927 43.0126 36.7374C43.2573 36.9822 43.5691 37.1489 43.9086 37.2164C44.2481 37.2839 44.5999 37.2492 44.9197 37.1168C45.2395 36.9843 45.5128 36.76 45.7051 36.4722C45.8974 36.1845 46 35.8461 46 35.5C46 35.0359 45.8156 34.5908 45.4874 34.2626C45.1593 33.9344 44.7141 33.75 44.25 33.75ZM39 21.5C35.5388 21.5 32.1554 22.5264 29.2775 24.4493C26.3997 26.3722 24.1566 29.1053 22.8321 32.303C21.5076 35.5007 21.161 39.0194 21.8363 42.4141C22.5115 45.8088 24.1782 48.927 26.6256 51.3744C29.0731 53.8218 32.1913 55.4885 35.5859 56.1637C38.9806 56.839 42.4993 56.4924 45.697 55.1679C48.8947 53.8434 51.6278 51.6003 53.5507 48.7225C55.4736 45.8446 56.5 42.4612 56.5 39C56.5 36.7019 56.0474 34.4262 55.1679 32.303C54.2884 30.1798 52.9994 28.2507 51.3744 26.6256C49.7493 25.0006 47.8202 23.7116 45.697 22.8321C43.5738 21.9527 41.2981 21.5 39 21.5ZM39 53C36.2311 53 33.5243 52.1789 31.222 50.6406C28.9197 49.1022 27.1253 46.9157 26.0657 44.3576C25.0061 41.7994 24.7288 38.9845 25.269 36.2687C25.8092 33.553 27.1426 31.0584 29.1005 29.1005C31.0584 27.1426 33.553 25.8092 36.2687 25.269C38.9845 24.7288 41.7994 25.0061 44.3576 26.0657C46.9157 27.1253 49.1022 28.9197 50.6406 31.222C52.1789 33.5243 53 36.2311 53 39C53 42.713 51.525 46.274 48.8995 48.8995C46.274 51.525 42.713 53 39 53Z" fill="black"/>
</svg>
