<svg width="183" height="54" viewBox="0 0 183 54" fill="none" xmlns="http://www.w3.org/2000/svg">
<path d="M175.966 53.8657H6.89751C3.178 53.8657 0.134766 50.8433 0.134766 47.1493V6.8508C0.134766 3.15676 3.178 0.134377 6.89751 0.134377H175.966C179.686 0.134377 182.729 3.15676 182.729 6.8508V47.1493C182.729 50.8433 179.686 53.8657 175.966 53.8657Z" fill="black"/>
<path d="M175.966 0.134377H6.89751C3.178 0.134377 0.134766 3.15676 0.134766 6.8508V47.1493C0.134766 50.8433 3.178 53.8657 6.89751 53.8657H175.966C179.686 53.8657 182.729 50.8433 182.729 47.1493V6.8508C182.729 3.15676 179.686 0.134377 175.966 0.134377ZM175.966 1.209C179.099 1.209 181.647 3.74029 181.647 6.8508V47.1493C181.647 50.2603 179.099 52.7916 175.966 52.7916H6.89751C3.76555 52.7916 1.21681 50.2603 1.21681 47.1493V6.8508C1.21681 3.74029 3.76555 1.209 6.89751 1.209H175.966Z" fill="#A6A6A6"/>
<path d="M64.2696 13.894C64.2696 15.0195 63.934 15.9157 63.2619 16.5842C62.4985 17.3792 61.5036 17.7769 60.2805 17.7769C59.1092 17.7769 58.1133 17.374 57.2943 16.5669C56.4739 15.7604 56.0645 14.7603 56.0645 13.5671C56.0645 12.3733 56.4739 11.3738 57.2943 10.5667C58.1133 9.76023 59.1092 9.3567 60.2805 9.3567C60.8617 9.3567 61.4181 9.46954 61.9464 9.69467C62.4747 9.92035 62.8985 10.2199 63.2155 10.5951L62.5022 11.3039C61.965 10.6664 61.2252 10.3479 60.2805 10.3479C59.4262 10.3479 58.6876 10.646 58.0642 11.2425C57.4407 11.8398 57.129 12.6142 57.129 13.5671C57.129 14.52 57.4407 15.2944 58.0642 15.8916C58.6876 16.4882 59.4262 16.7863 60.2805 16.7863C61.1867 16.7863 61.9422 16.4866 62.5471 15.8864C62.9397 15.4954 63.1668 14.9519 63.2276 14.2539H60.2805V13.2858H64.213C64.251 13.4963 64.2696 13.6983 64.2696 13.894Z" fill="white"/>
<path d="M64.2701 13.8942H64.1348C64.1337 14.9939 63.8103 15.8481 63.1668 16.4894L63.1653 16.4905L63.1647 16.4916C62.4256 17.2591 61.4755 17.6411 60.281 17.6427C59.1409 17.6411 58.1867 17.2549 57.3899 16.4721C56.5949 15.6876 56.2017 14.73 56.2002 13.5672C56.2017 12.4039 56.5949 11.4469 57.3899 10.6629C58.1867 9.87951 59.1409 9.49278 60.281 9.49117C60.8447 9.49117 61.3815 9.60038 61.8935 9.81812C62.406 10.0375 62.8108 10.3249 63.1124 10.6819L63.216 10.5952L63.1204 10.5002L62.407 11.2096L62.5027 11.3041L62.6068 11.2181C62.0446 10.549 61.2553 10.2117 60.281 10.2137C59.3951 10.2126 58.6157 10.527 57.9711 11.1462C57.3202 11.7675 56.9932 12.5854 56.9943 13.5672C56.9932 14.549 57.3202 15.367 57.9711 15.9882C58.6157 16.6075 59.3951 16.9218 60.281 16.9207C61.2172 16.9223 62.0151 16.6069 62.6432 15.9815C63.0628 15.5637 63.3005 14.9851 63.3629 14.2656L63.3755 14.1197H60.4162V13.4203H64.2135V13.2859L64.0803 13.3096C64.1173 13.5132 64.1348 13.7068 64.1348 13.8942H64.2701H64.4053C64.4053 13.69 64.3862 13.4802 64.3466 13.2619L64.3266 13.1516H60.1457V14.254V14.3884H63.228V14.254L63.0933 14.2425C63.0337 14.9184 62.817 15.4274 62.452 15.7916C61.8708 16.3666 61.1576 16.6505 60.281 16.6521C59.4584 16.651 58.7604 16.3697 58.1587 15.7952C57.5628 15.2227 57.2663 14.4918 57.2648 13.5672C57.2663 12.6426 57.5628 11.9118 58.1587 11.3393C58.7604 10.7647 59.4584 10.4835 60.281 10.4824C61.1956 10.4845 61.8862 10.7846 62.3992 11.3907L62.4943 11.503L63.3116 10.6902L63.3993 10.6031L63.3195 10.5091C62.9872 10.1157 62.5445 9.80335 62.0002 9.5715C61.455 9.33897 60.8796 9.22251 60.281 9.22251C59.0786 9.22144 58.0409 9.64121 57.1992 10.4719C56.3544 11.301 55.9286 12.3431 55.9297 13.5672C55.9286 14.7908 56.3544 15.8335 57.1997 16.6631C58.0409 17.4932 59.0786 17.9125 60.281 17.9114C61.5332 17.9125 62.5719 17.4994 63.3602 16.6772L63.2624 16.5844L63.358 16.6793C64.0586 15.9841 64.4063 15.0448 64.4053 13.8942H64.2701Z" fill="white"/>
<path d="M70.5052 10.5275H66.8094V13.083H70.1423V14.0515H66.8094V16.6069H70.5052V17.5971H65.7676V9.53736H70.5052V10.5275Z" fill="white"/>
<path d="M70.5057 10.5275V10.3931H66.6747V13.2173H70.0075V13.9167L66.6747 13.9171V16.7412H70.3704V17.4627H65.9033V9.67167H70.3704V10.5275H70.5057V10.3931V10.5275H70.6409V9.53734V9.40301H65.6328V17.7314H70.6409V16.6069V16.4726H66.9452V14.1858H70.278V13.0829V12.9486H66.9452V10.6618H70.6409V10.5275H70.5057Z" fill="white"/>
<path d="M74.9019 17.5971H73.8584V10.5275H71.5918V9.53736H77.1685V10.5275H74.9019V17.5971Z" fill="white"/>
<path d="M74.9024 17.597V17.4627H73.9941V10.3931H71.7275V9.67167H77.0337V10.3931H74.7671V17.597H74.9024V17.4627V17.597H75.0376V10.6618H77.3042V9.53734V9.40301H71.457V10.5275V10.6618H73.7236V17.7314H74.9024H75.0376V17.597H74.9024Z" fill="white"/>
<path d="M81.2031 17.5971V9.53736H82.2455V17.5971H81.2031Z" fill="white"/>
<path d="M81.2036 17.597H81.3389V9.67167H82.1108V17.4627H81.2036V17.597H81.3389H81.2036V17.7314H82.246H82.3813V9.40301H81.2036H81.0684V17.7314H81.2036V17.597Z" fill="white"/>
<path d="M86.8725 17.5971H85.829V10.5275H83.5625V9.53736H89.1391V10.5275H86.8725V17.5971Z" fill="white"/>
<path d="M86.871 17.597V17.4627H85.9628V10.3931H83.6963V9.67167H89.0023V10.3931H86.7357V17.597H86.871V17.4627V17.597H87.0062V10.6618H89.2728V9.53734V9.40301H83.4258V10.5275V10.6618H85.6922V17.7314H86.871H87.0062V17.597H86.871Z" fill="white"/>
<path d="M94.5142 15.8806C95.1149 16.4846 95.8499 16.7863 96.719 16.7863C97.5881 16.7863 98.3235 16.4846 98.9232 15.8806C99.5245 15.2767 99.8257 14.5047 99.8257 13.5671C99.8257 12.6295 99.5245 11.8575 98.9232 11.2536C98.3235 10.6496 97.5881 10.3479 96.719 10.3479C95.8499 10.3479 95.1149 10.6496 94.5142 11.2536C93.9145 11.8575 93.6134 12.6295 93.6134 13.5671C93.6134 14.5047 93.9145 15.2767 94.5142 15.8806ZM99.6946 16.5554C98.8967 17.3702 97.9045 17.7769 96.719 17.7769C95.5323 17.7769 94.5406 17.3702 93.7445 16.5554C92.9461 15.7415 92.5488 14.7452 92.5488 13.5671C92.5488 12.389 92.9461 11.3926 93.7445 10.5788C94.5406 9.76385 95.5323 9.3567 96.719 9.3567C97.8983 9.3567 98.8878 9.766 99.6893 10.5841C100.49 11.4021 100.89 12.3964 100.89 13.5671C100.89 14.7452 100.491 15.7415 99.6946 16.5554Z" fill="white"/>
<path d="M94.5147 15.8808L94.4185 15.9752C95.0415 16.6033 95.8187 16.9223 96.7195 16.9207C97.6197 16.9223 98.398 16.6033 99.0199 15.9752C99.6469 15.3465 99.9624 14.5332 99.9614 13.5672C99.9624 12.6013 99.6469 11.7879 99.0199 11.1593C98.398 10.5311 97.6197 10.2121 96.7195 10.2137C95.8187 10.2121 95.0415 10.5311 94.4185 11.1593C93.793 11.7879 93.477 12.6013 93.4787 13.5672C93.477 14.5332 93.793 15.3465 94.4185 15.9752L94.5147 15.8808L94.6109 15.7863C94.0371 15.2064 93.7502 14.477 93.7492 13.5672C93.7502 12.6574 94.0371 11.928 94.6109 11.3481C95.1899 10.7684 95.8814 10.484 96.7195 10.4824C97.5568 10.484 98.25 10.7684 98.8276 11.3481C99.4024 11.928 99.6893 12.6574 99.6904 13.5672C99.6893 14.477 99.4024 15.2064 98.8276 15.7863C98.25 16.3661 97.5568 16.6505 96.7195 16.6521C95.8814 16.6505 95.1899 16.3661 94.6109 15.7863L94.5147 15.8808ZM99.6951 16.5555L99.5984 16.4621C98.8228 17.2513 97.8744 17.6411 96.7195 17.6427C95.564 17.6411 94.6156 17.2513 93.8415 16.4621L93.8379 16.458L93.8415 16.4621C93.0676 15.6703 92.6857 14.7153 92.6846 13.5672C92.6857 12.4191 93.0676 11.4642 93.8415 10.6723C94.6156 9.88314 95.564 9.49278 96.7195 9.49117C97.867 9.49278 98.8132 9.88475 99.5931 10.6781C100.37 11.4736 100.754 12.427 100.755 13.5672C100.754 14.7153 100.371 15.6703 99.5984 16.4621L99.6951 16.5555L99.7923 16.6489C100.612 15.8125 101.027 14.7751 101.026 13.5672C101.027 12.3662 100.611 11.3309 99.7869 10.4908C98.9628 9.64752 97.9304 9.22103 96.7195 9.22251C95.5022 9.22103 94.4667 9.64551 93.6477 10.4856V10.4851C92.8262 11.3219 92.413 12.3593 92.4141 13.5672C92.413 14.7751 92.8262 15.8125 93.6477 16.6494L93.6514 16.6532L93.6477 16.6489C94.4667 17.4889 95.5022 17.9125 96.7195 17.9114C97.9362 17.9125 98.9717 17.4889 99.7923 16.6489L99.6951 16.5555Z" fill="white"/>
<path d="M102.354 17.5971V9.53736H103.623L107.567 15.8073H107.612L107.567 14.254V9.53736H108.61V17.5971H107.522L103.395 11.0233H103.35L103.395 12.5771V17.5971H102.354Z" fill="white"/>
<path d="M102.354 17.597H102.489V9.67167H103.548L107.492 15.9416H107.612H107.751L107.702 14.252V9.67167H108.475V17.4627H107.597L103.471 10.889H103.351H103.212L103.261 12.5792V17.4627H102.354V17.597H102.489H102.354V17.7314H103.396H103.531V12.5749L103.486 11.0197L103.351 11.0233V11.1576H103.396V11.0233L103.281 11.0947L107.447 17.7314H108.611H108.746V9.40301H107.567H107.432V14.2556L107.477 15.8109L107.612 15.8072V15.6729H107.567V15.8072L107.682 15.7359L103.698 9.40301H102.354H102.219V17.7314H102.354V17.597Z" fill="white"/>
<path d="M144.772 40.4329H147.296V23.6402H144.772V40.4329ZM167.504 29.6893L164.611 36.9697H164.524L161.522 29.6893H158.803L163.306 39.8651L160.739 45.5253H163.372L170.311 29.6893H167.504ZM153.191 38.5255C152.364 38.5255 151.211 38.1152 151.211 37.0994C151.211 35.8032 152.648 35.3064 153.887 35.3064C154.997 35.3064 155.518 35.544 156.193 35.8684C155.997 37.4236 154.648 38.5255 153.191 38.5255ZM153.496 29.3219C151.668 29.3219 149.776 30.1215 148.993 31.8931L151.233 32.8218C151.712 31.8931 152.603 31.5903 153.539 31.5903C154.844 31.5903 156.171 32.3685 156.193 33.7511V33.9237C155.735 33.6645 154.758 33.2757 153.561 33.2757C151.146 33.2757 148.687 34.5932 148.687 37.0563C148.687 39.3032 150.667 40.7508 152.886 40.7508C154.583 40.7508 155.518 39.9947 156.106 39.1091H156.193V40.4051H158.629V33.9667C158.629 30.9858 156.389 29.3219 153.496 29.3219ZM137.898 31.7335H134.308V25.9774H137.898C139.785 25.9774 140.856 27.5289 140.856 28.8554C140.856 30.1567 139.785 31.7335 137.898 31.7335ZM137.833 23.6402H131.786V40.4329H134.308V34.0707H137.833C140.63 34.0707 143.38 32.0594 143.38 28.8554C143.38 25.6515 140.63 23.6402 137.833 23.6402ZM104.857 38.5286C103.113 38.5286 101.653 37.0788 101.653 35.0875C101.653 33.0753 103.113 31.6035 104.857 31.6035C106.578 31.6035 107.929 33.0753 107.929 35.0875C107.929 37.0788 106.578 38.5286 104.857 38.5286ZM107.755 30.6296H107.667C107.101 29.9589 106.011 29.3529 104.638 29.3529C101.762 29.3529 99.1257 31.8631 99.1257 35.0875C99.1257 38.2905 101.762 40.7792 104.638 40.7792C106.011 40.7792 107.101 40.1731 107.667 39.481H107.755V40.3032C107.755 42.4893 106.578 43.6578 104.682 43.6578C103.135 43.6578 102.176 42.5538 101.784 41.6234L99.5833 42.5323C100.215 44.0471 101.893 45.9084 104.682 45.9084C107.646 45.9084 110.152 44.1767 110.152 39.9569V29.6992H107.755V30.6296ZM111.895 40.4329H114.422V23.6397H111.895V40.4329ZM118.149 34.8929C118.083 32.6853 119.87 31.5603 121.155 31.5603C122.158 31.5603 123.008 32.0578 123.29 32.7725L118.149 34.8929ZM125.993 32.9887C125.514 31.7115 124.053 29.3529 121.068 29.3529C118.105 29.3529 115.643 31.6685 115.643 35.066C115.643 38.269 118.083 40.7792 121.351 40.7792C123.988 40.7792 125.514 39.1777 126.146 38.2473L124.185 36.9487C123.531 37.901 122.637 38.5286 121.351 38.5286C120.066 38.5286 119.151 37.9442 118.562 36.7975L126.254 33.6377L125.993 32.9887ZM64.7113 31.1059V33.5296H70.5509C70.3766 34.8929 69.919 35.8883 69.2216 36.5809C68.3721 37.4251 67.0428 38.3555 64.7113 38.3555C61.1158 38.3555 58.3051 35.4774 58.3051 31.9066C58.3051 28.3359 61.1158 25.4574 64.7113 25.4574C66.6507 25.4574 68.0667 26.215 69.1127 27.1889L70.8341 25.4794C69.3743 24.0941 67.4348 23.0337 64.7113 23.0337C59.7865 23.0337 55.6465 27.0157 55.6465 31.9066C55.6465 36.7975 59.7865 40.7792 64.7113 40.7792C67.3698 40.7792 69.3743 39.914 70.943 38.2905C72.5555 36.689 73.0569 34.4385 73.0569 32.6209C73.0569 32.0578 73.0135 31.5388 72.9259 31.1059H64.7113ZM79.696 38.5286C77.9525 38.5286 76.4488 37.1003 76.4488 35.066C76.4488 33.0101 77.9525 31.6035 79.696 31.6035C81.4389 31.6035 82.9426 33.0101 82.9426 35.066C82.9426 37.1003 81.4389 38.5286 79.696 38.5286ZM79.696 29.3529C76.5143 29.3529 73.9212 31.755 73.9212 35.066C73.9212 38.3555 76.5143 40.7792 79.696 40.7792C82.8771 40.7792 85.4702 38.3555 85.4702 35.066C85.4702 31.755 82.8771 29.3529 79.696 29.3529ZM92.2926 38.5286C90.5497 38.5286 89.0459 37.1003 89.0459 35.066C89.0459 33.0101 90.5497 31.6035 92.2926 31.6035C94.0356 31.6035 95.5393 33.0101 95.5393 35.066C95.5393 37.1003 94.0356 38.5286 92.2926 38.5286ZM92.2926 29.3529C89.111 29.3529 86.5184 31.755 86.5184 35.066C86.5184 38.3555 89.111 40.7792 92.2926 40.7792C95.4738 40.7792 98.0669 38.3555 98.0669 35.066C98.0669 31.755 95.4738 29.3529 92.2926 29.3529Z" fill="white"/>
<path d="M14.3495 43.6426L14.249 43.5471C13.8554 43.1335 13.623 42.4913 13.623 41.6596V41.8554V12.1473C13.623 12.1446 13.623 12.1426 13.623 12.1404C13.623 12.143 13.623 12.1451 13.623 12.1478V12.3441C13.623 11.4435 13.894 10.7652 14.3479 10.3584L31.1057 27.0011L14.3495 43.6426ZM13.623 12.1388C13.623 12.0648 13.6251 11.9929 13.6289 11.9222C13.6251 11.9924 13.623 12.0648 13.623 12.1388ZM13.6289 11.9189C13.6289 11.918 13.6289 11.9169 13.6293 11.9158C13.6289 11.9169 13.6289 11.918 13.6289 11.9189ZM13.6293 11.9095C13.6293 11.909 13.6293 11.9085 13.6293 11.9079C13.6293 11.9085 13.6293 11.909 13.6293 11.9095Z" fill="url(#paint0_linear_465_1299)"/>
<path d="M36.6906 32.7472L36.818 32.6753L43.4359 28.9409C44.0668 28.5846 44.4873 28.1528 44.6971 27.6958C44.4879 28.1528 44.0672 28.5852 43.4359 28.9414L36.818 32.6759L36.6906 32.7472ZM36.6922 32.5504L31.1055 27.001L36.6916 21.4526L43.4359 25.2579C44.2923 25.7412 44.7731 26.364 44.8535 27.0005C44.8535 27.001 44.8535 27.0021 44.8535 27.003C44.7731 27.638 44.2923 28.2614 43.4359 28.7446L36.6922 32.5504Z" fill="url(#paint1_linear_465_1299)"/>
<path d="M15.5444 44.2764C15.0762 44.2764 14.6678 44.1253 14.3492 43.8398L14.3498 43.8393C14.6683 44.1247 15.0773 44.2764 15.5454 44.2764C15.586 44.2764 15.6273 44.2753 15.6691 44.2733C15.6267 44.2753 15.5849 44.2764 15.5444 44.2764ZM15.5449 44.0796C15.0768 44.0801 14.6683 43.9285 14.3498 43.643V43.6426L31.106 27.0011L36.6927 32.5505L17.0602 43.6289C16.517 43.9348 16.0023 44.0796 15.5449 44.0796ZM14.3451 43.8362C14.3154 43.8095 14.2864 43.7811 14.2578 43.7517L14.3451 43.8362Z" fill="url(#paint2_linear_465_1299)"/>
<path d="M31.1055 27.001L14.3477 10.3584C14.6662 10.0735 15.0741 9.92237 15.5417 9.92237C16.0003 9.92237 16.5154 10.0677 17.0597 10.3741L36.6916 21.4526L31.1055 27.001ZM36.818 21.3272L17.0597 10.178C16.5154 9.87146 16.0003 9.72612 15.5417 9.72612C15.5395 9.72612 15.538 9.72612 15.5359 9.72612C15.5386 9.72612 15.5406 9.72612 15.5439 9.72612C16.0014 9.72612 16.5159 9.87092 17.0597 10.1775L36.818 21.3272Z" fill="url(#paint3_linear_465_1299)"/>
<path d="M15.6698 44.2732C16.095 44.2491 16.5658 44.1037 17.0609 43.8251L36.6918 32.7472L17.0609 43.8251C16.5662 44.1043 16.095 44.2491 15.6698 44.2732ZM14.35 43.8398L14.3458 43.8361C14.3472 43.8372 14.3489 43.8387 14.35 43.8398ZM14.2585 43.7516L14.25 43.7433V43.7428C14.2532 43.7459 14.2558 43.749 14.2585 43.7516Z" fill="black"/>
<path d="M36.6914 32.7472L36.8188 32.6753L36.6914 32.7472Z" fill="url(#paint4_linear_465_1299)"/>
<path d="M15.5461 44.2764C15.078 44.2764 14.669 44.1247 14.3505 43.8393L14.35 43.8398C14.3489 43.8388 14.3472 43.8373 14.3458 43.8362L14.2585 43.7517C14.2558 43.749 14.2532 43.7459 14.25 43.7428L14.3505 43.643C14.669 43.9285 15.0775 44.0801 15.5456 44.0796C16.003 44.0796 16.5177 43.9348 17.0609 43.6289L36.6934 32.5505L36.8192 32.6754L36.6918 32.7473L17.0609 43.8252C16.5658 44.1038 16.095 44.2491 15.6698 44.2733C15.628 44.2753 15.5867 44.2764 15.5461 44.2764Z" fill="url(#paint5_linear_465_1299)"/>
<path d="M14.249 43.7434C13.8554 43.3298 13.623 42.6876 13.623 41.8559V41.8554C13.623 42.6876 13.8554 43.3292 14.249 43.7428V43.7434Z" fill="black"/>
<path d="M14.249 43.7429C13.8554 43.3293 13.623 42.6876 13.623 41.8554V41.6597C13.623 42.4913 13.8554 43.1336 14.249 43.5472L14.3495 43.6427L14.249 43.7429Z" fill="url(#paint6_linear_465_1299)"/>
<path d="M14.25 43.7429L14.3505 43.6427V43.6431L14.25 43.7429Z" fill="url(#paint7_linear_465_1299)"/>
<path d="M44.6973 27.6958C44.8013 27.4691 44.8536 27.2362 44.8536 27.0031C44.8536 27.0027 44.8536 27.0022 44.8536 27.0022C44.8536 27.2356 44.8013 27.4685 44.6973 27.6958Z" fill="black"/>
<path d="M36.8191 32.6754L36.6934 32.5504L43.437 28.7446C44.2935 28.2614 44.7743 27.638 44.8546 27.0031C44.8546 27.2361 44.8023 27.469 44.6983 27.6958C44.4885 28.1528 44.068 28.5846 43.437 28.9409L36.8191 32.6754Z" fill="url(#paint8_linear_465_1299)"/>
<path d="M44.8544 27.001V27.0005C44.8539 26.2978 44.381 25.5953 43.4368 25.0621L36.8189 21.3277H36.8184L36.8189 21.3272L43.4368 25.0616C44.3821 25.5947 44.8555 26.2983 44.8544 27.001Z" fill="#404040"/>
<path d="M44.8532 27.0005C44.7729 26.3641 44.2921 25.7412 43.4356 25.2579L36.6914 21.4526L36.8172 21.3277H36.8177L43.4356 25.0621C44.3798 25.5953 44.8527 26.2978 44.8532 27.0005Z" fill="url(#paint9_linear_465_1299)"/>
<path d="M13.623 12.1404C13.623 12.1399 13.623 12.1394 13.623 12.1388C13.623 12.1394 13.623 12.1399 13.623 12.1404ZM13.6289 11.9222C13.6289 11.9211 13.6289 11.92 13.6289 11.9189C13.6289 11.92 13.6289 11.9211 13.6289 11.9222ZM13.6293 11.9158C13.6293 11.9137 13.6293 11.9117 13.6293 11.9095C13.6293 11.9117 13.6293 11.9137 13.6293 11.9158ZM13.6293 11.9079C13.7076 10.528 14.4631 9.73086 15.5319 9.72616C15.0685 9.72885 14.6649 9.87997 14.349 10.1627V10.1622L14.3452 10.1659C14.3119 10.1958 14.2802 10.2273 14.249 10.2598C13.894 10.6329 13.67 11.1917 13.6293 11.9079Z" fill="#404040"/>
<path d="M13.623 12.3441V12.1478C13.623 12.1451 13.623 12.143 13.623 12.1404C13.623 12.1399 13.623 12.1394 13.623 12.1388C13.623 12.0648 13.6251 11.9924 13.6289 11.9222C13.6289 11.9211 13.6289 11.92 13.6289 11.9189C13.6289 11.918 13.6289 11.9169 13.6293 11.9158C13.6293 11.9137 13.6293 11.9117 13.6293 11.9095C13.6293 11.909 13.6293 11.9085 13.6293 11.9079C13.67 11.1917 13.894 10.6329 14.249 10.2598L14.3479 10.3584C13.894 10.7652 13.623 11.4435 13.623 12.3441ZM14.3452 10.1659L14.349 10.1622C14.3479 10.1638 14.3463 10.1649 14.3452 10.1659Z" fill="url(#paint10_linear_465_1299)"/>
<path d="M36.6929 21.4526L17.0609 10.3741C16.5166 10.0677 16.0016 9.92238 15.5429 9.92238C15.0753 9.92238 14.6674 10.0735 14.3489 10.3584L14.25 10.2598C14.2812 10.2273 14.3129 10.1957 14.3462 10.1659C14.3472 10.1648 14.3489 10.1638 14.35 10.1627C14.6659 9.87993 15.0695 9.72881 15.5329 9.72613C15.534 9.72613 15.5355 9.72613 15.5371 9.72613C15.5393 9.72613 15.5407 9.72613 15.5429 9.72613C16.0016 9.72613 16.5166 9.87147 17.0609 10.178L36.8192 21.3273L36.8187 21.3277L36.6929 21.4526Z" fill="url(#paint11_linear_465_1299)"/>
<defs>
<linearGradient id="paint0_linear_465_1299" x1="29.6198" y1="11.8339" x2="7.07666" y2="34.5325" gradientUnits="userSpaceOnUse">
<stop stop-color="#00A0FF"/>
<stop offset="0.00657445" stop-color="#00A1FF"/>
<stop offset="0.2601" stop-color="#00BEFF"/>
<stop offset="0.5122" stop-color="#00D2FF"/>
<stop offset="0.7604" stop-color="#00DFFF"/>
<stop offset="1" stop-color="#00E3FF"/>
</linearGradient>
<linearGradient id="paint1_linear_465_1299" x1="45.897" y1="27.0018" x2="13.1693" y2="27.0018" gradientUnits="userSpaceOnUse">
<stop stop-color="#FFE000"/>
<stop offset="0.4087" stop-color="#FFBD00"/>
<stop offset="0.7754" stop-color="#FFA500"/>
<stop offset="1" stop-color="#FF9C00"/>
</linearGradient>
<linearGradient id="paint2_linear_465_1299" x1="33.7145" y1="30.0843" x2="3.14436" y2="60.8653" gradientUnits="userSpaceOnUse">
<stop stop-color="#FF3A44"/>
<stop offset="1" stop-color="#C31162"/>
</linearGradient>
<linearGradient id="paint3_linear_465_1299" x1="10.0042" y1="0.370959" x2="23.655" y2="14.1159" gradientUnits="userSpaceOnUse">
<stop stop-color="#32A071"/>
<stop offset="0.0685" stop-color="#2DA771"/>
<stop offset="0.4762" stop-color="#15CF74"/>
<stop offset="0.8009" stop-color="#06E775"/>
<stop offset="1" stop-color="#00F076"/>
</linearGradient>
<linearGradient id="paint4_linear_465_1299" x1="45.8979" y1="27.0022" x2="13.17" y2="27.0022" gradientUnits="userSpaceOnUse">
<stop stop-color="#CCB300"/>
<stop offset="0.4087" stop-color="#CC9700"/>
<stop offset="0.7754" stop-color="#CC8400"/>
<stop offset="1" stop-color="#CC7D00"/>
</linearGradient>
<linearGradient id="paint5_linear_465_1299" x1="33.7152" y1="30.0843" x2="3.1451" y2="60.8654" gradientUnits="userSpaceOnUse">
<stop stop-color="#CC2E36"/>
<stop offset="1" stop-color="#9C0E4E"/>
</linearGradient>
<linearGradient id="paint6_linear_465_1299" x1="29.6198" y1="11.834" x2="7.07673" y2="34.5327" gradientUnits="userSpaceOnUse">
<stop stop-color="#008DE0"/>
<stop offset="0.00657445" stop-color="#008DE0"/>
<stop offset="0.2601" stop-color="#00A7E0"/>
<stop offset="0.5122" stop-color="#00B8E0"/>
<stop offset="0.7604" stop-color="#00C4E0"/>
<stop offset="1" stop-color="#00C7E0"/>
</linearGradient>
<linearGradient id="paint7_linear_465_1299" x1="33.7159" y1="30.085" x2="3.14721" y2="60.8671" gradientUnits="userSpaceOnUse">
<stop stop-color="#E0333C"/>
<stop offset="1" stop-color="#AB0F56"/>
</linearGradient>
<linearGradient id="paint8_linear_465_1299" x1="45.8981" y1="27.0018" x2="13.1705" y2="27.0018" gradientUnits="userSpaceOnUse">
<stop stop-color="#E0C500"/>
<stop offset="0.4087" stop-color="#E0A600"/>
<stop offset="0.7754" stop-color="#E09100"/>
<stop offset="1" stop-color="#E08900"/>
</linearGradient>
<linearGradient id="paint9_linear_465_1299" x1="45.8967" y1="27.0018" x2="13.1691" y2="27.0018" gradientUnits="userSpaceOnUse">
<stop stop-color="#FFE840"/>
<stop offset="0.4087" stop-color="#FFCE40"/>
<stop offset="0.7754" stop-color="#FFBC40"/>
<stop offset="1" stop-color="#FFB540"/>
</linearGradient>
<linearGradient id="paint10_linear_465_1299" x1="29.6198" y1="11.8339" x2="7.07665" y2="34.5325" gradientUnits="userSpaceOnUse">
<stop stop-color="#40B8FF"/>
<stop offset="0.00657445" stop-color="#40B9FF"/>
<stop offset="0.2601" stop-color="#40CEFF"/>
<stop offset="0.5122" stop-color="#40DDFF"/>
<stop offset="0.7604" stop-color="#40E7FF"/>
<stop offset="1" stop-color="#40EAFF"/>
</linearGradient>
<linearGradient id="paint11_linear_465_1299" x1="10.0054" y1="0.370962" x2="23.6562" y2="14.1159" gradientUnits="userSpaceOnUse">
<stop stop-color="#65B895"/>
<stop offset="0.0685" stop-color="#62BD95"/>
<stop offset="0.4762" stop-color="#50DB97"/>
<stop offset="0.8009" stop-color="#44ED98"/>
<stop offset="1" stop-color="#40F498"/>
</linearGradient>
</defs>
</svg>
