<svg width="89" height="89" viewBox="0 0 89 89" fill="none" xmlns="http://www.w3.org/2000/svg">
<circle cx="44.5" cy="44.5" r="44.5" fill="#F4F4F4"/>
<path d="M54.3333 38.3333H53V37C53 35.9391 52.5785 34.9217 51.8284 34.1716C51.0782 33.4214 50.0608 33 49 33H35.6666C34.6058 33 33.5883 33.4214 32.8382 34.1716C32.0881 34.9217 31.6666 35.9391 31.6666 37V53C31.6666 54.0609 32.0881 55.0783 32.8382 55.8284C33.5883 56.5786 34.6058 57 35.6666 57H54.3333C55.3942 57 56.4116 56.5786 57.1617 55.8284C57.9119 55.0783 58.3333 54.0609 58.3333 53V42.3333C58.3333 41.2725 57.9119 40.2551 57.1617 39.5049C56.4116 38.7548 55.3942 38.3333 54.3333 38.3333ZM35.6666 35.6667H49C49.3536 35.6667 49.6927 35.8071 49.9428 36.0572C50.1928 36.3072 50.3333 36.6464 50.3333 37V38.3333H35.6666C35.313 38.3333 34.9739 38.1929 34.7238 37.9428C34.4738 37.6928 34.3333 37.3536 34.3333 37C34.3333 36.6464 34.4738 36.3072 34.7238 36.0572C34.9739 35.8071 35.313 35.6667 35.6666 35.6667ZM55.6666 49H54.3333C53.9797 49 53.6405 48.8595 53.3905 48.6095C53.1404 48.3594 53 48.0203 53 47.6667C53 47.313 53.1404 46.9739 53.3905 46.7239C53.6405 46.4738 53.9797 46.3333 54.3333 46.3333H55.6666V49ZM55.6666 43.6667H54.3333C53.2724 43.6667 52.255 44.0881 51.5049 44.8382C50.7547 45.5884 50.3333 46.6058 50.3333 47.6667C50.3333 48.7275 50.7547 49.7449 51.5049 50.4951C52.255 51.2452 53.2724 51.6667 54.3333 51.6667H55.6666V53C55.6666 53.3536 55.5262 53.6928 55.2761 53.9428C55.0261 54.1929 54.6869 54.3333 54.3333 54.3333H35.6666C35.313 54.3333 34.9739 54.1929 34.7238 53.9428C34.4738 53.6928 34.3333 53.3536 34.3333 53V40.7733C34.7616 40.924 35.2125 41.0007 35.6666 41H54.3333C54.6869 41 55.0261 41.1405 55.2761 41.3905C55.5262 41.6406 55.6666 41.9797 55.6666 42.3333V43.6667Z" fill="black"/>
</svg>
