<svg width="89" height="89" viewBox="0 0 89 89" fill="none" xmlns="http://www.w3.org/2000/svg">
<circle cx="44.5" cy="44.5" r="44.5" fill="#F4F4F4"/>
<path d="M37 45H49C50.4145 45 51.771 45.5619 52.7712 46.5621C53.7714 47.5623 54.3333 48.9188 54.3333 50.3333C54.3333 51.7478 53.7714 53.1044 52.7712 54.1046C51.771 55.1048 50.4145 55.6667 49 55.6667H37V45Z" stroke="black" stroke-width="2" stroke-linecap="round" stroke-linejoin="round"/>
<path d="M37 34.3333H47.6667C49.0812 34.3333 50.4377 34.8952 51.4379 35.8954C52.4381 36.8956 53 38.2522 53 39.6667C53 41.0812 52.4381 42.4377 51.4379 43.4379C50.4377 44.4381 49.0812 45 47.6667 45H37V34.3333Z" stroke="black" stroke-width="2" stroke-linecap="round" stroke-linejoin="round"/>
</svg>
