<svg width="1101" height="560" viewBox="0 0 1101 560" fill="none" xmlns="http://www.w3.org/2000/svg">
<path d="M0 547.448C5.22315 234.4 252.485 -2.3307 553.752 -0.000153125C869.802 2.46169 1102.35 254.587 1101 550.599C1099.65 864.993 847.201 1100.58 549.81 1098.97C234.286 1097.26 1.14975 845.299 0 547.448ZM647.736 803.48H668.891C738.336 803.48 807.814 802.889 877.259 803.907C894.078 804.169 898.316 799.475 898.217 783.03C897.56 662.367 897.56 541.704 898.217 421.041C898.217 407.123 893.815 399.508 882.055 392.877C827.228 362.088 772.829 330.511 718.232 299.262C665.672 269.096 612.915 238.832 559.862 209.289C556.951 207.998 553.8 207.331 550.615 207.331C547.429 207.331 544.279 207.998 541.368 209.289C520.212 220.122 499.681 232.267 478.953 244.051C392.426 293.813 305.921 343.608 219.438 393.435C210.864 398.359 203.506 402.725 203.538 415.198C203.998 539.144 203.998 663.089 203.538 787.035C203.538 799.804 207.776 803.808 220.719 803.677C290.164 803.086 359.642 803.414 429.086 803.414C454.118 803.414 454.052 803.414 454.151 778.894C454.447 707.402 453.165 635.812 455.629 564.386C457.403 513.311 507.039 473.921 558.121 478.681C609.203 483.44 646.619 522.994 647.21 573.872C647.999 643.198 647.44 712.556 647.473 781.881L647.736 803.48Z" fill="#A4A4A4"/>
</svg>
