<svg width="571" height="1079" viewBox="0 0 571 1079" fill="none" xmlns="http://www.w3.org/2000/svg">
<path d="M0 507.374C5.41291 182.932 261.658 -62.4155 573.87 -60.0001C901.402 -57.4487 1142.4 203.854 1141 510.64C1139.6 836.476 877.98 1080.63 569.785 1078.97C242.798 1077.2 1.19152 816.065 0 507.374ZM671.269 772.724H693.193C765.16 772.724 837.162 772.112 909.13 773.166C926.56 773.439 930.952 768.574 930.85 751.53C930.169 626.475 930.169 501.42 930.85 376.365C930.85 361.941 926.288 354.049 914.1 347.177C857.282 315.267 800.906 282.54 744.326 250.154C689.856 218.89 635.182 187.524 580.202 156.907C577.185 155.569 573.92 154.877 570.619 154.877C567.318 154.877 564.053 155.569 561.036 156.907C539.112 168.133 517.835 180.72 496.353 192.933C406.683 244.507 317.035 296.114 227.41 347.755C218.525 352.858 210.899 357.383 210.933 370.31C211.41 498.767 211.41 627.224 210.933 755.681C210.933 768.914 215.325 773.064 228.738 772.928C300.706 772.316 372.708 772.656 444.675 772.656C470.617 772.656 470.548 772.656 470.651 747.244C470.957 673.15 469.629 598.954 472.183 524.928C474.021 471.994 525.46 431.17 578.398 436.103C631.336 441.036 670.111 482.029 670.724 534.759C671.541 606.608 670.962 678.491 670.996 750.339L671.269 772.724Z" fill="#A4A4A4"/>
</svg>
